<?xml version="1.0" standalone="no"?>
<!DOCTYPE svg PUBLIC "-//W3C//DTD SVG 20010904//EN"
 "http://www.w3.org/TR/2001/REC-SVG-20010904/DTD/svg10.dtd">
<svg version="1.0" xmlns="http://www.w3.org/2000/svg"
 width="100.000000px" height="95.33333333px" viewBox="0 0 300.000000 286.000000"
 preserveAspectRatio="xMidYMid meet">
<metadata>
Created by potrace 1.10, written by Peter Selinger 2001-2011
</metadata>
<g transform="translate(0.000000,286.000000) scale(0.100000,-0.100000)"
fill="#000000" stroke="none">
<path d="M1156 2534 c-19 -19 -21 -64 -3 -86 19 -24 41 -27 75 -11 30 14 32
14 72 -18 53 -42 116 -136 135 -202 20 -66 19 -74 -6 -82 -26 -9 -59 -62 -59
-98 0 -40 26 -84 60 -102 l29 -15 -24 -36 c-22 -33 -31 -57 -48 -129 -4 -18
-6 -18 -13 5 -50 162 -253 395 -469 538 -153 102 -256 128 -374 98 -88 -23
-146 -67 -189 -144 -98 -179 -15 -449 187 -608 69 -54 188 -114 241 -121 51
-7 50 -23 -2 -47 -92 -43 -165 -153 -175 -265 -18 -196 166 -371 376 -359 162
9 339 165 402 355 13 42 29 43 29 2 0 -50 21 -108 51 -140 27 -29 29 -29 56
-15 36 18 73 91 73 144 0 22 5 44 10 47 5 3 10 0 10 -7 0 -23 68 -156 103
-202 44 -58 118 -121 180 -154 46 -23 63 -27 147 -27 88 0 100 3 164 34 84 41
134 90 172 167 57 118 31 269 -64 361 -22 21 -59 48 -81 58 -22 11 -39 24 -38
29 2 5 21 14 43 21 102 31 249 126 316 204 93 109 138 223 138 347 0 166 -71
273 -210 315 -82 25 -144 22 -237 -11 -153 -54 -395 -251 -521 -426 -41 -56
-102 -173 -102 -195 0 -10 -4 -20 -9 -23 -10 -7 -21 27 -21 65 0 14 -13 46
-30 72 l-30 48 24 9 c77 29 89 160 19 206 -21 13 -24 21 -18 51 12 63 51 137
96 180 103 97 93 91 120 70 32 -23 75 -9 89 28 14 36 13 42 -10 65 -36 36
-110 15 -110 -31 0 -8 -16 -23 -36 -34 -77 -41 -161 -163 -179 -259 -11 -56
-23 -52 -41 11 -9 32 -25 74 -34 93 -24 48 -89 120 -139 154 -23 16 -41 34
-41 41 0 38 -75 59 -104 29z m59 -45 c0 -17 -6 -24 -20 -24 -23 0 -33 34 -13
46 20 13 33 5 33 -22z m603 4 c3 -19 -1 -23 -22 -23 -21 0 -26 5 -26 26 0 21
4 25 23 22 14 -2 23 -11 25 -25z m-1070 -156 c189 -76 464 -333 555 -518 58
-120 77 -189 84 -306 3 -62 4 -113 1 -113 -3 0 -25 26 -49 58 -94 125 -255
273 -414 379 -115 77 -193 116 -308 155 -85 28 -99 30 -186 25 l-94 -6 5 83
c9 138 65 217 187 263 49 18 147 10 219 -20z m1736 9 c99 -41 156 -140 156
-271 l0 -74 -32 10 c-141 40 -403 -61 -662 -256 -114 -86 -212 -185 -329 -337
-17 -22 -18 -20 -13 102 4 134 17 186 77 303 111 221 437 500 629 540 39 8
136 -1 174 -17z m-945 -252 c23 -19 31 -34 31 -59 0 -25 -8 -40 -31 -59 -17
-14 -34 -26 -39 -26 -28 0 -62 24 -76 53 -14 30 -15 38 -3 63 13 27 50 54 76
54 6 0 25 -12 42 -26z m-929 -144 c184 -64 430 -228 585 -390 l50 -52 -45 7
c-137 21 -173 25 -258 25 -111 0 -177 17 -287 73 -98 50 -205 153 -257 247
-49 88 -50 103 -13 112 51 12 157 2 225 -22z m2003 11 c20 -20 -74 -188 -137
-244 -65 -59 -178 -126 -254 -150 -58 -19 -109 -27 -207 -32 -71 -3 -158 -11
-193 -17 -35 -5 -66 -7 -69 -4 -14 14 158 168 288 259 98 68 249 146 347 179
72 23 98 28 151 23 36 -2 69 -9 74 -14z m-1101 -108 c35 -39 39 -92 36 -388
-3 -266 -5 -293 -23 -329 -11 -22 -25 -42 -32 -44 -7 -2 -22 16 -35 40 -22 41
-23 53 -26 318 -4 301 -1 340 28 388 23 37 31 39 52 15z m-352 -378 c72 -17
140 -44 140 -56 0 -4 -15 -11 -32 -14 -104 -22 -213 -91 -318 -201 -82 -86
-130 -169 -138 -240 -2 -24 -8 -44 -11 -44 -19 0 -119 103 -139 143 -82 165
17 362 207 413 64 17 213 17 291 -1z m967 -1 c81 -26 152 -82 190 -149 29 -53
33 -69 33 -133 0 -58 -5 -85 -26 -127 -24 -53 -104 -135 -129 -135 -7 0 -15
18 -18 39 -8 64 -52 147 -109 207 -109 115 -261 216 -346 230 -24 4 -41 11
-39 18 4 13 103 44 177 55 94 14 214 12 267 -5z m-764 -122 c16 -17 14 -25
-23 -118 -52 -126 -99 -196 -175 -256 -82 -66 -151 -91 -236 -85 -37 2 -71 7
-77 11 -15 9 9 101 42 163 26 48 128 157 186 201 69 51 188 101 241 102 14 0
33 -8 42 -18z m402 -10 c99 -38 275 -180 321 -258 37 -63 68 -164 54 -178 -6
-6 -49 -11 -98 -11 -75 0 -95 4 -145 29 -69 33 -152 111 -192 179 -15 27 -42
87 -60 135 -27 70 -31 91 -22 109 10 21 15 23 56 17 25 -4 64 -14 86 -22z"/>
<path d="M430 1474 c-11 -12 -10 -18 3 -32 16 -15 18 -15 34 0 13 14 14 20 3
32 -7 9 -16 16 -20 16 -4 0 -13 -7 -20 -16z"/>
<path d="M2532 1458 c2 -15 10 -23 23 -23 30 0 27 39 -3 43 -20 3 -23 0 -20
-20z"/>
<path d="M2283 672 c-40 -12 -63 -40 -63 -75 0 -41 20 -61 78 -78 51 -15 69
-33 53 -53 -18 -21 -44 -25 -84 -11 -31 11 -39 10 -49 -2 -19 -24 17 -43 79
-43 44 0 59 5 78 25 49 48 25 93 -69 129 -25 10 -46 23 -46 31 0 25 29 38 69
31 44 -7 62 7 40 29 -18 18 -58 25 -86 17z"/>
<path d="M2560 673 c-51 -19 -75 -77 -47 -114 14 -19 70 -49 90 -49 21 0 38
-25 31 -44 -7 -19 -74 -22 -92 -4 -9 10 -16 9 -28 -4 -21 -21 -12 -35 33 -47
84 -24 154 33 127 103 -3 9 -32 28 -64 42 -68 30 -79 48 -45 70 23 15 27 15
50 0 31 -20 32 -20 45 4 9 16 6 22 -19 35 -31 15 -54 18 -81 8z"/>
<path d="M285 653 c4 -10 25 -67 47 -128 21 -60 44 -114 49 -120 15 -15 31 11
59 99 14 42 27 76 30 76 3 0 16 -34 30 -76 14 -42 30 -84 36 -92 13 -18 44 -9
44 13 0 12 53 172 75 228 6 13 2 17 -19 17 -23 0 -28 -7 -51 -83 -14 -46 -25
-88 -25 -95 0 -7 -4 -12 -10 -12 -5 0 -10 6 -10 14 0 8 -12 51 -27 95 -36 112
-52 110 -89 -14 -15 -52 -31 -91 -35 -87 -3 4 -18 46 -33 95 -24 80 -29 87
-52 87 -21 0 -25 -4 -19 -17z"/>
<path d="M759 550 c-1 -66 -2 -125 -3 -131 -1 -7 31 -11 87 -12 84 -2 87 -1
87 21 0 21 -4 22 -65 22 l-65 0 0 35 0 35 60 0 c53 0 60 2 60 20 0 18 -7 20
-60 20 l-60 0 0 35 0 35 65 0 c58 0 65 2 65 20 0 18 -7 20 -85 20 l-85 0 -1
-120z"/>
<path d="M1052 539 l3 -131 75 0 c72 0 75 1 75 23 0 21 -4 23 -55 20 l-55 -2
3 110 4 111 -26 0 -27 0 3 -131z"/>
<path d="M1310 542 c0 -71 2 -131 4 -133 2 -2 41 -3 85 -1 72 3 81 6 81 23 0
17 -7 19 -63 19 l-62 0 3 110 4 110 -26 0 -26 0 0 -128z"/>
<path d="M1580 540 l0 -130 26 0 26 0 -4 80 c-2 44 0 80 4 80 4 0 33 -36 65
-80 43 -59 64 -80 80 -80 23 0 23 2 23 130 0 123 -1 130 -20 130 -17 0 -20 -8
-22 -91 l-3 -92 -68 92 c-45 59 -76 91 -88 91 -18 0 -19 -9 -19 -130z"/>
<path d="M1930 540 l0 -130 90 0 c83 0 90 1 90 20 0 18 -7 20 -70 20 l-70 0 0
35 0 35 59 0 c55 0 71 8 71 36 0 2 -30 4 -66 4 l-65 0 3 33 3 32 68 3 c59 3
67 5 67 22 0 18 -7 20 -90 20 l-90 0 0 -130z"/>
<path d="M1070 205 c0 -82 0 -82 68 -69 34 7 51 36 33 58 -5 6 -8 22 -4 34 8
32 -14 52 -58 52 l-39 0 0 -75z m70 30 c0 -21 -30 -31 -41 -14 -14 23 -11 29
16 29 16 0 25 -6 25 -15z m10 -60 c0 -16 -45 -21 -54 -6 -8 12 4 21 31 21 14
0 23 -6 23 -15z"/>
<path d="M1255 255 c-14 -13 -25 -34 -25 -45 0 -27 52 -80 79 -80 23 0 69 38
72 60 9 79 -71 121 -126 65z m83 -17 c30 -30 2 -86 -38 -73 -27 9 -40 35 -29
63 9 24 47 30 67 10z"/>
<path d="M1473 253 c-29 -69 -43 -106 -43 -114 0 -18 29 -8 35 11 9 28 61 28
70 0 6 -20 16 -25 27 -14 10 9 -48 139 -63 142 -8 1 -19 -10 -26 -25z m41 -39
c9 -23 8 -24 -14 -24 -19 0 -27 20 -13 33 11 11 20 8 27 -9z"/>
<path d="M1622 208 c3 -61 6 -73 21 -76 14 -3 18 1 15 19 -4 32 20 35 33 5 7
-14 21 -26 31 -26 17 0 17 2 2 25 -14 22 -14 26 0 47 20 29 20 34 -4 58 -13
13 -33 20 -60 20 l-41 0 3 -72z m77 33 c7 -5 10 -14 7 -20 -10 -16 -56 -14
-56 2 0 26 23 35 49 18z"/>
<path d="M1800 205 l0 -74 33 5 c67 11 74 14 85 39 17 38 15 53 -13 80 -18 18
-35 25 -65 25 l-40 0 0 -75z m92 22 c13 -20 9 -35 -14 -51 -38 -27 -48 -20
-48 30 0 45 1 46 27 39 15 -3 31 -12 35 -18z"/>
<path d="M798 203 c-95 -5 -104 -23 -12 -23 36 0 75 -5 86 -11 16 -8 24 -8 35
4 18 18 9 38 -15 35 -9 -1 -52 -4 -94 -5z"/>
<path d="M2075 200 c-4 -6 -3 -16 1 -20 9 -9 212 5 222 15 3 3 -28 5 -69 5
-41 0 -90 3 -110 6 -23 4 -39 2 -44 -6z"/>
</g>
</svg>
